<svg xmlns="http://www.w3.org/2000/svg" version="1.1" xmlns:xlink="http://www.w3.org/1999/xlink" id="Layer_1" x="0px" y="0px" viewBox="0 0 100 100" enable-background="new 0 0 100 100" xml:space="preserve" width="100" height="100"><metadata><rdf:RDF xmlns:rdf="http://www.w3.org/1999/02/22-rdf-syntax-ns#" xmlns:dc="http://purl.org/dc/elements/1.1/"><rdf:Description><dc:creator>RealFaviconGenerator</dc:creator><dc:source>https://realfavicongenerator.net</dc:source></rdf:Description></rdf:RDF></metadata><path fill="#8F41D8" d="M92.62,18.49H77.47c-0.32,0-0.61,0.19-0.73,0.48L64.12,48.21c-0.16,0.38-0.68,0.44-0.93,0.11L50.26,31.27
	c-0.13-0.17-0.39-0.17-0.52,0L36.81,48.32c-0.25,0.33-0.76,0.27-0.93-0.11L23.26,18.97c-0.13-0.29-0.42-0.48-0.73-0.48H7.38
	c-0.12,0-0.2,0.12-0.16,0.24L33.94,81.2c0.09,0.2,0.28,0.33,0.5,0.33h7.47c0.21,0,0.41-0.1,0.54-0.27l4.44-6.09
	c0,0-5.23,1.88-7.69-1.93c-2.61-4.04,0.54-7.54,0.54-7.54l9.79-12.24c0.25-0.31,0.71-0.31,0.96,0l9.79,12.24c0,0,3.15,3.5,0.54,7.54
	c-2.47,3.81-7.69,1.93-7.69,1.93l4.44,6.09c0.13,0.17,0.33,0.27,0.54,0.27h7.47c0.22,0,0.42-0.13,0.5-0.33l26.71-62.48
	C92.82,18.61,92.74,18.49,92.62,18.49z"></path><style>@media (prefers-color-scheme: light) { :root { filter: none; } }
@media (prefers-color-scheme: dark) { :root { filter: none; } }
</style></svg>