<?xml version="1.0" encoding="utf-8"?>
<svg version="1.1" xmlns="http://www.w3.org/2000/svg" xmlns:xlink="http://www.w3.org/1999/xlink" x="0px" y="0px"
	 viewBox="0 0 100 73.54">
<path d="M99.7,0.02H82.04c-0.37,0-0.71,0.22-0.86,0.56l-14.71,34.1c-0.19,0.44-0.79,0.52-1.08,0.13L50.3,14.92
	c-0.15-0.2-0.45-0.2-0.6,0L34.61,34.81c-0.29,0.38-0.89,0.31-1.08-0.13L18.82,0.58c-0.15-0.34-0.48-0.56-0.86-0.56H0.3
	c-0.14,0-0.24,0.15-0.18,0.28l31.15,72.86c0.1,0.23,0.33,0.39,0.58,0.39h8.71c0.25,0,0.48-0.12,0.63-0.32l5.17-7.11
	c0,0-6.09,2.19-8.97-2.26c-3.05-4.71,0.63-8.79,0.63-8.79l11.42-14.27c0.29-0.36,0.83-0.36,1.12,0l11.42,14.27
	c0,0,3.68,4.08,0.63,8.79c-2.88,4.45-8.97,2.26-8.97,2.26l5.17,7.11c0.15,0.2,0.38,0.32,0.63,0.32h8.71c0.25,0,0.48-0.15,0.58-0.39
	L99.88,0.29C99.94,0.16,99.84,0.02,99.7,0.02z"/>
</svg>
